PathFileType	4	(X/Y/Z)	/home/abdul/Desktop/myosuite/custom_workspace/IK/output/S3_12_1.trc
DataRate	CameraRate	NumFrames	NumMarkers	Units	OrigDataRate	OrigDataStartFrame	OrigNumFrames
200.0	200.0	22	3	mm	200.0	590	786
Frame#	Time	V_Shoulder			V_Elbow			V_Wrist		
		X1	Y1	Z1	X2	Y2	Z2	X3	Y3	Z3

590	2.945	-125.11433164504886	643.0895014743484	312.2430526675939	-327.682824193541	459.7599629527368	76.7021705947858	-123.5774563162953	235.7216845810053	98.12114862294703
591	2.95	-125.22077192924858	642.7891352381466	312.1334608009299	-327.5056864527437	459.55674662788374	76.45369271744175	-123.631631892439	234.78033935583278	96.69312223462447
592	2.955	-125.32565039182806	642.4915522131982	312.0269599587691	-327.33147606454656	459.35375694704305	76.21284075198756	-123.68430610482244	233.85474362505846	95.29704352852855
593	2.96	-125.42891313656425	642.1969409474888	311.9235415071401	-327.1602573416977	459.15132315811513	75.97936560528737	-123.73552224269557	232.94532402982617	93.93253538004791
594	2.965	-125.53050862714764	641.9054879954866	311.82319286273463	-326.99209169692637	458.9497690736416	75.7530207764494	-123.78532315802047	232.05249892311255	92.59918761408218
595	2.97	-125.63038777295463	641.6173775878632	311.7258975889306	-326.82703746974823	458.749412561496	75.53356259795939	-123.83375081692662	231.17667748025838	91.29655865953112
596	2.975	-125.72850401013397	641.3327913040465	311.63163549762504	-326.665149750292	458.55056504669676	75.3207504529677	-123.88084585941175	230.31825880508637	90.02417726594905
597	2.98	-125.82481337773118	641.0519077484356	311.5403827565768	-326.5064802010829	458.3535310247785	75.1143469703153	-123.92664716969685	229.47763103205	88.78154427608331
598	2.985	-125.91927458858453	640.7749022310927	311.4521120019563	-326.3510768777825	458.15860758718236	74.91411819892926	-123.971191459621	228.65517042506866	87.568134447808
599	2.99	-126.01184909473716	640.5019464537112	311.36679245579785	-326.1989840499423	457.9660839591562	74.71983376324715	-124.01451286742892	227.85124047393327	86.38339831879097
600	2.995	-126.1025011471216	640.2332082016451	311.28439004804864	-326.0502420228834	457.77624105069094	74.5312670013415	-124.05664257425695	227.06619098941206	85.22676410708944
601	3.0	-126.19119784928687	639.9688510427645	311.2048675429078	-325.90488696186287	457.5893510210535	74.34819508741242	-124.09760844056275	226.3003571984437	84.09763964076208
602	3.005	-126.27790920495211	639.7090340338813	311.1281846691492	-325.76295071972584	457.4056768575175	74.17039914029652	-124.13743466467123	225.55405884107444	82.99541430951254
603	3.01	-126.36260815918648	639.4539114354657	311.0542982541212	-325.6244606692809	457.22547196893333	73.99766431960784	-124.17614146552187	224.82759927107085	81.91946103134059
604	3.015	-126.44527063303144	639.2036324353545	310.9831623611167	-325.48943954165793	457.0489797948204	73.8297799110797	-124.2137447916019	224.1212645624202	80.86913822717547
605	3.02	-126.52587555139928	638.9583408821226	310.91472842980784	-325.35790527193035	456.87643343070613	73.66653940261727	-124.2502560579367	223.4353226242092	79.84379179649908
606	3.025	-126.6044048641	638.7181750287618	310.8489454194416	-325.2298708532912	456.7080552704774	73.50774055250085	-124.28568191288244	222.77002232664927	78.84275708703663
607	3.03	-126.68084355986805	638.4832672872903	310.78575995449256	-325.10534420107615	456.5440566665501	73.35318545110003	-124.32002403632809	222.12559264128544	77.86536085169797
608	3.035	-126.75517967328047	638.253743994876	310.7251164724719	-324.98432802791876	456.38463760869786	73.20268057736975	-124.35327897076397	221.50224179868388	76.91092318609435
609	3.04	-126.82740428447933	638.029725192037	310.66695737359225	-324.866819731307	456.22998642241816	73.05603685130322	-124.38543798651573	220.9001564671373	75.9787594401324
610	3.045	-126.89751151163165	637.811324413448	310.6112231719923	-324.75281129478475	456.08027948774077	72.91306968341415	-124.41648698227269	220.31950095615235	75.06818209739859
611	3.05	-126.96549849608367	637.5986484918492	310.5578526482238	-324.64228920400956	455.9356809794134	72.77359902221333	-124.44640642186437	219.76041644868548	74.1785026162935
